Coordinates
version=1
nRows=16
nColumns=42
inDegrees=yes

Units are S.I. units (second, meters, Newtons, ...)
If the header above contains a line with 'inDegrees', this indicates whether rotational values are in degrees (yes) or radians (no).

endheader
time	pelvis_tilt	pelvis_list	pelvis_rotation	pelvis_tx	pelvis_ty	pelvis_tz	hip_flexion_r	hip_adduction_r	hip_rotation_r	knee_angle_r	knee_adduction_r	knee_angle_r_beta	ankle_angle_r	subtalar_angle_r	mtp_angle_r	hip_flexion_l	hip_adduction_l	hip_rotation_l	knee_angle_l	knee_adduction_l	knee_angle_l_beta	ankle_angle_l	subtalar_angle_l	mtp_angle_l	lumbar_extension	lumbar_bending	lumbar_rotation	arm_flex_r	arm_add_r	arm_rot_r	elbow_flex_r	pro_sup_r	wrist_flex_r	wrist_dev_r	arm_flex_l	arm_add_l	arm_rot_l	elbow_flex_l	pro_sup_l	wrist_flex_l	wrist_dev_l
      0.00000000	     -5.09990506	     -4.27928164	     -0.68741442	     -1.39052535	      0.86234220	     -0.38205529	      6.88932300	      4.69095273	     -3.42337885	      9.92989354	      7.20543361	      0.17330934	      8.65029058	      0.72012986	     -9.53617658	     27.25122472	     -8.19987988	      3.26099980	     62.28671658	      7.55963824	      1.08710828	      5.35668140	    -17.76061194	     -9.53617658	     -4.90071007	      1.92325634	      6.83365090	     -3.34975737	    -19.59298075	      6.75364693	     39.23055951	     90.00000001	      0.00000000	      0.00000000	      1.64888808	    -10.05428237	     -7.77230272	     40.27172330	     90.00000001	      0.00000000	      0.00000000
      0.01000000	     -5.11956766	     -4.41807623	     -0.71087903	     -1.38014572	      0.86154016	     -0.38117380	      6.17416170	      4.99048847	     -3.57863292	     10.03803523	      7.07223357	      0.17519677	      9.09488375	      0.83316155	     -9.50940307	     28.64426395	     -8.36516676	      3.01590339	     60.35983845	      7.48137542	      1.05347792	      5.67860896	    -17.47477965	     -9.50940307	     -4.89190469	      1.97144647	      6.98712393	     -2.49582301	    -19.56722034	      6.71588157	     39.87143488	     90.00000001	      0.00000000	      0.00000000	      1.18730375	    -10.17937806	     -7.83104740	     40.03999650	     90.00000001	      0.00000000	      0.00000000
      0.02000000	     -4.95003080	     -4.29449386	     -0.75395704	     -1.36974181	      0.86096578	     -0.38039266	      5.07677718	      5.04241157	     -3.28447592	      9.73514075	      6.88322897	      0.16991026	     10.09362856	      1.13264148	     -9.46790917	     29.61066320	     -8.28491816	      3.06214020	     58.11607997	      7.87093577	      1.01431694	      6.39675038	    -17.87110739	     -9.46790917	     -5.13299479	      1.70947233	      7.21208954	     -1.65449904	    -19.52764889	      6.74706666	     40.49098164	     90.00000001	      0.00000000	      0.00000000	      0.97826437	    -10.24009917	     -8.21640511	     39.56682211	     90.00000001	      0.00000000	      0.00000000
      0.03000000	     -4.61619747	     -4.24700775	     -0.81582659	     -1.35913124	      0.86059858	     -0.37983521	      3.80646538	      5.02975165	     -3.07021294	      9.50428657	      6.95926032	      0.16588109	     10.68945035	      1.34992441	     -9.40906794	     30.20851489	     -8.30504415	      2.85713833	     55.55857198	      8.10211115	      0.96968001	      6.74361336	    -17.91266250	     -9.40906794	     -5.55139198	      1.57440587	      7.40039729	     -0.75203510	    -19.50026878	      6.77754903	     41.07475058	     90.00000001	      0.00000000	      0.00000000	      0.72609880	    -10.23427903	     -8.65295835	     39.11256178	     90.00000001	      0.00000000	      0.00000000
      0.04000000	     -4.66859370	     -4.49203258	     -0.82053309	     -1.34868576	      0.85947708	     -0.37914522	      3.11672006	      5.42920925	     -3.28279077	      9.60279626	      6.81849720	      0.16760041	     11.04741465	      1.40604512	     -9.38194656	     31.33677640	     -8.63140235	      2.24295282	     53.13431064	      7.83217101	      0.92736867	      6.95064800	    -17.56452333	     -9.38194656	     -5.52751932	      1.76935681	      7.51442597	      0.04162965	    -19.48197648	      6.75472278	     41.69481693	     90.00000001	      0.00000000	      0.00000000	      0.30052143	    -10.31142856	     -8.73796029	     38.90453824	     90.00000001	      0.00000000	      0.00000000
      0.05000000	     -4.66020110	     -4.65246143	     -0.90578481	     -1.33809145	      0.85844664	     -0.37846509	      2.31046565	      5.75246975	     -3.29136072	      9.61811268	      6.64071732	      0.16786773	     11.56358172	      1.53320195	     -9.35371579	     32.14628888	     -8.91796764	      1.56560547	     50.34200240	      7.68751838	      0.87863369	      7.22740543	    -17.36537064	     -9.35371579	     -5.56074676	      1.87071231	      7.71556832	      0.82025867	    -19.47691182	      6.79120381	     42.31223665	     90.00000001	      0.00000000	      0.00000000	     -0.04002875	    -10.35956311	     -8.95415181	     38.57933955	     90.00000001	      0.00000000	      0.00000000
      0.06000000	     -4.04291881	     -4.28754209	     -1.24650810	     -1.32728751	      0.85840552	     -0.37801718	      0.68683154	      5.28591172	     -2.62061611	      9.31295032	      6.87408017	      0.16254165	     12.27959583	      1.79663050	     -9.29188841	     31.76484586	     -8.80253015	      0.73505686	     46.83703888	      7.93549468	      0.81746054	      7.46933363	    -17.48022948	     -9.29188841	     -6.34128544	      1.38248430	      8.14129492	      1.72716040	    -19.48259291	      7.01634483	     42.86522572	     90.00000001	      0.00000000	      0.00000000	     -0.05438887	    -10.27106743	     -9.71463648	     37.84355802	     90.00000001	      0.00000000	      0.00000000
      0.07000000	     -3.86676744	     -4.33105392	     -1.45917615	     -1.31654808	      0.85754814	     -0.37742795	     -0.31846505	      5.38595347	     -2.41868721	      9.31313272	      6.83603416	      0.16254483	     12.70238596	      1.87725451	     -9.23833133	     31.97082873	     -9.07117166	     -0.23364948	     43.48903478	      7.86501103	      0.75902685	      7.49624758	    -17.09602847	     -9.23833133	     -6.58113903	      1.34810844	      8.42572593	      2.50200535	    -19.49737254	      7.15078963	     43.45724975	     90.00000001	      0.00000000	      0.00000000	     -0.32083723	    -10.26967933	    -10.06560616	     37.44420761	     90.00000001	      0.00000000	      0.00000000
      0.08000000	     -3.56589108	     -4.29106428	     -1.66357961	     -1.30564666	      0.85679948	     -0.37704132	     -1.51047858	      5.31884213	     -2.21392657	      9.23684266	      6.90518958	      0.16121332	     13.08695886	      1.89375504	     -9.15836008	     31.85228830	     -9.21719903	     -1.30376166	     39.94024990	      7.77661165	      0.69708886	      7.36470622	    -16.78681097	     -9.15836008	     -6.96517137	      1.24526188	      8.65469672	      3.30506064	    -19.48690575	      7.31004391	     44.05026780	     90.00000001	      0.00000000	      0.00000000	     -0.54356505	    -10.25961156	    -10.52195745	     36.97234558	     90.00000001	      0.00000000	      0.00000000
      0.09000000	     -3.53031959	     -4.46201993	     -1.97859208	     -1.29494284	      0.85562717	     -0.37643644	     -2.27712570	      5.51954307	     -2.00212718	      9.42174013	      6.87699317	      0.16444039	     13.50488301	      2.04957226	     -9.10964845	     31.90098472	     -9.69380051	     -2.14224371	     36.32035743	      7.96510719	      0.63390982	      7.25764356	    -16.05964080	     -9.10964845	     -7.05997514	      1.36799055	      9.03608808	      4.00109766	    -19.54298510	      7.49483372	     44.66615288	     90.00000001	      0.00000000	      0.00000000	     -0.78659849	    -10.21626463	    -10.83617155	     36.56037228	     90.00000001	      0.00000000	      0.00000000
      0.10000000	     -3.30907458	     -4.49470708	     -2.28984491	     -1.28391889	      0.85469418	     -0.37604940	     -3.30008010	      5.49701416	     -1.78405576	      9.55085860	      6.92258150	      0.16669393	     13.91040238	      2.23227067	     -9.05195563	     31.51709195	     -9.97309775	     -3.06714569	     32.55503549	      8.12190872	      0.56819256	      6.99784855	    -15.45862036	     -9.05195563	     -7.34944180	      1.34984587	      9.36188474	      4.69978917	    -19.58059556	      7.72163988	     45.27801773	     90.00000001	      0.00000000	      0.00000000	     -0.99192705	    -10.17558825	    -11.29910713	     36.04473955	     90.00000001	      0.00000000	      0.00000000
      0.11000000	     -3.08912597	     -4.53209783	     -2.62243988	     -1.27277108	      0.85371224	     -0.37567875	     -4.31184144	      5.46342155	     -1.56030584	      9.70830105	      6.94831660	      0.16944182	     14.26064129	      2.42213960	     -8.98376814	     31.00195207	    -10.24868024	     -3.93149277	     28.83740468	      8.32159311	      0.50330766	      6.54957679	    -14.85076142	     -8.98376814	     -7.62822091	      1.33305753	      9.70152788	      5.34380862	    -19.62625821	      7.96295023	     45.89988867	     90.00000001	      0.00000000	      0.00000000	     -1.20134991	    -10.12414725	    -11.75474072	     35.57934937	     90.00000001	      0.00000000	      0.00000000
      0.12000000	     -2.93808625	     -4.62741906	     -2.99650169	     -1.26154650	      0.85260998	     -0.37529523	     -5.20281678	      5.47665968	     -1.30075341	      9.97752588	      6.96385535	      0.17414068	     14.58171949	      2.63701890	     -8.90934089	     30.47448084	    -10.59902762	     -4.71454475	     25.30929106	      8.57295237	      0.44173046	      6.04414521	    -14.09798383	     -8.90934089	     -7.82026631	      1.38212051	     10.07757820	      5.91619631	    -19.68414189	      8.21998179	     46.53933708	     90.00000001	      0.00000000	      0.00000000	     -1.42733094	    -10.07130256	    -12.17755328	     35.13327959	     90.00000001	      0.00000000	      0.00000000
      0.13000000	     -2.83990949	     -4.74722693	     -3.41144528	     -1.25020460	      0.85142845	     -0.37493881	     -5.98597201	      5.50437659	     -1.00993993	     10.36814968	      6.94478691	      0.18095835	     14.89304043	      2.84085037	     -8.85004266	     29.95582822	    -10.97258383	     -5.47660017	     22.10378327	      8.81662927	      0.38578380	      5.66425775	    -13.22591229	     -8.85004266	     -7.94372211	      1.46254231	     10.48982538	      6.41261588	    -19.76314128	      8.50139593	     47.19047479	     90.00000001	      0.00000000	      0.00000000	     -1.63451884	    -10.01581126	    -12.57683234	     34.64517196	     90.00000001	      0.00000000	      0.00000000
      0.14000000	     -2.97101845	     -5.00647519	     -3.83432359	     -1.23892567	      0.84996385	     -0.37444547	     -6.44826564	      5.75484614	     -0.71347042	     10.91229457	      6.79128410	      0.19045547	     15.07866956	      2.99100796	     -8.82159887	     29.76935209	    -11.52249361	     -6.18910564	     19.46541958	      9.06372173	      0.33973566	      5.20111204	    -12.07960837	     -8.82159887	     -7.82040504	      1.69987150	     10.90544416	      6.81656193	    -19.83007222	      8.73668766	     47.84234720	     90.00000001	      0.00000000	      0.00000000	     -1.93284022	    -10.00375863	    -12.82240474	     34.33801636	     90.00000001	      0.00000000	      0.00000000
      0.15000000	     -2.94877721	     -5.09690286	     -4.26935082	     -1.22740665	      0.84881329	     -0.37416290	     -7.04907333	      5.72505671	     -0.34952155	     11.50536344	      6.75429122	      0.20080647	     15.23966126	      3.08622990	     -8.79557519	     29.31539093	    -11.83566088	     -6.87154298	     17.14427499	      9.25672143	      0.29922405	      4.91162303	    -11.17683447	     -8.79557519	     -7.84159623	      1.75650021	     11.31559180	      7.18736439	    -19.89464077	      9.01032341	     48.47504422	     90.00000001	      0.00000000	      0.00000000	     -2.12610096	     -9.96796220	    -13.15928941	     33.86647908	     90.00000001	      0.00000000	      0.00000000
